<?xml version="1.0" standalone="no"?>
<!DOCTYPE svg PUBLIC "-//W3C//DTD SVG 20010904//EN"
 "http://www.w3.org/TR/2001/REC-SVG-20010904/DTD/svg10.dtd">
<svg version="1.0" xmlns="http://www.w3.org/2000/svg"
 width="1879.000000pt" height="1879.000000pt" viewBox="0 0 1879.000000 1879.000000"
 preserveAspectRatio="xMidYMid meet">
<metadata>
Created by potrace 1.11, written by Peter Selinger 2001-2013
</metadata>
<g transform="translate(0.000000,1879.000000) scale(0.100000,-0.100000)"
fill="#000000" stroke="none">
<path d="M2088 12995 c-2 -2 -28 -6 -58 -9 -87 -9 -116 -16 -224 -48 -98 -28
-257 -99 -284 -125 -7 -7 -17 -13 -22 -13 -5 0 -15 -6 -22 -12 -7 -7 -38 -33
-68 -58 -30 -25 -62 -54 -71 -65 -9 -11 -30 -34 -45 -51 -36 -38 -60 -68 -65
-80 -2 -5 -20 -34 -39 -64 -19 -30 -36 -57 -36 -60 -10 -34 -18 -50 -27 -50
-6 0 -7 -3 -4 -7 4 -3 2 -12 -3 -19 -6 -6 -13 -20 -15 -30 -3 -11 -18 -56 -34
-101 -16 -45 -26 -84 -24 -87 3 -2 1 -11 -3 -18 -8 -13 -10 -18 -19 -68 -2
-14 -7 -41 -11 -60 -4 -19 -7 -50 -8 -67 0 -18 -3 -33 -6 -33 -9 0 -10 -33
-14 -845 -2 -429 -7 -800 -11 -825 -4 -25 -8 -56 -10 -70 -2 -14 -4 -25 -5
-25 -1 0 -4 -13 -6 -30 -3 -16 -10 -35 -16 -42 -6 -7 -8 -13 -4 -13 4 0 0 -13
-8 -29 -9 -16 -12 -31 -9 -35 4 -3 2 -6 -3 -6 -6 0 -16 -16 -24 -35 -8 -19
-18 -35 -24 -35 -5 0 -7 -3 -3 -6 3 -3 -2 -14 -11 -23 -10 -10 -30 -33 -47
-52 -51 -58 -219 -150 -246 -134 -5 4 -9 2 -9 -3 0 -5 -6 -9 -12 -9 -15 -1
-114 -13 -145 -18 -42 -7 -78 -30 -92 -60 -15 -32 -23 -233 -9 -241 4 -2 5
-13 3 -23 -5 -25 51 -75 90 -80 17 -3 47 -5 68 -5 20 0 37 -4 37 -7 0 -3 10
-6 23 -5 25 2 123 -31 184 -62 46 -24 153 -122 153 -140 0 -7 5 -12 11 -12 5
0 7 -4 4 -10 -3 -5 -1 -10 5 -10 10 0 35 -48 32 -62 -1 -5 3 -8 8 -8 5 0 9 -3
8 -7 0 -5 2 -17 6 -28 18 -48 26 -72 31 -97 3 -16 8 -40 11 -55 4 -16 7 -45 7
-65 0 -21 4 -38 9 -38 5 0 4 -9 -2 -20 -6 -11 -7 -20 -3 -20 4 0 9 -318 9
-708 1 -747 3 -820 16 -839 5 -6 5 -14 -2 -18 -6 -3 -8 -11 -4 -16 5 -8 18
-82 29 -159 2 -14 4 -27 5 -30 1 -3 2 -9 1 -14 -1 -4 2 -13 8 -20 5 -6 11 -27
14 -46 4 -29 24 -91 54 -170 4 -8 5 -18 5 -22 -1 -5 3 -8 8 -8 6 0 9 -3 9 -7
-3 -13 25 -73 33 -73 4 0 8 -7 8 -15 0 -8 8 -24 17 -35 10 -11 18 -24 17 -28
0 -4 4 -12 10 -19 26 -30 36 -43 36 -48 0 -16 128 -147 190 -195 25 -19 48
-39 52 -45 4 -5 8 -6 8 -2 0 5 7 1 16 -7 8 -9 22 -16 30 -16 8 0 14 -4 14 -8
0 -8 35 -25 145 -72 49 -21 140 -49 180 -55 11 -2 20 -4 20 -5 0 -3 39 -10 85
-16 67 -8 89 -12 100 -19 5 -3 10 -2 10 4 0 7 9 8 23 3 12 -5 56 -8 97 -7 166
2 174 13 173 220 0 100 -4 150 -12 153 -6 2 -11 10 -11 17 0 17 -43 30 -125
39 -16 2 -32 4 -35 6 -3 1 -25 3 -50 5 -25 1 -45 4 -45 5 0 1 -11 4 -25 5 -14
2 -32 6 -40 8 -52 13 -106 30 -129 39 -14 6 -29 12 -32 12 -28 4 -218 136
-196 136 3 0 -10 15 -28 34 -19 18 -35 38 -35 44 0 6 -4 12 -9 14 -13 5 -81
145 -74 152 4 3 1 6 -5 6 -7 0 -12 9 -12 21 0 11 -4 28 -9 38 -6 10 -12 31
-15 47 -2 16 -5 29 -6 29 -2 0 -8 35 -15 90 -3 22 -7 54 -10 70 -3 17 -7 83
-10 148 -2 65 -7 122 -10 127 -3 6 -2 10 2 10 5 0 8 20 8 45 0 25 -4 45 -8 45
-5 0 -5 6 0 13 10 16 11 28 2 53 -4 12 -5 25 -2 28 8 8 7 112 -2 125 -3 6 -2
11 2 11 5 0 8 20 8 45 0 25 -4 45 -8 45 -5 0 -5 6 0 13 10 16 11 28 2 53 -4
12 -5 25 -2 28 8 8 7 112 -2 125 -3 6 -2 11 2 11 5 0 8 20 8 45 0 25 -4 45 -9
45 -5 0 -4 6 2 13 14 17 15 19 3 48 -5 15 -7 30 -4 33 8 8 7 112 -2 125 -3 6
-2 11 2 11 10 0 8 94 -2 110 -3 5 -2 10 3 10 6 0 8 17 6 38 -4 36 -15 205 -17
270 -1 17 -4 32 -7 32 -3 0 -6 9 -7 21 -1 11 -7 46 -14 77 -7 31 -12 60 -11
65 1 4 -3 7 -8 7 -6 0 -10 10 -10 23 0 13 -5 28 -12 35 -7 7 -9 12 -5 12 3 0
-7 23 -23 50 -17 28 -30 54 -30 57 0 26 -156 184 -221 223 -32 19 -161 82
-174 85 -49 11 -52 28 -8 40 58 14 212 96 221 118 2 4 9 7 15 7 12 0 147 138
147 151 0 4 6 14 13 21 15 16 72 133 82 171 2 4 3 8 5 10 3 4 12 42 13 60 1 9
4 17 7 17 3 0 7 10 8 23 3 25 10 62 12 62 3 0 9 79 13 163 2 40 7 75 10 79 4
3 2 14 -4 24 -5 11 -6 19 -1 19 10 0 8 73 -2 89 -4 5 -2 12 3 15 5 4 7 18 5
32 -6 34 -7 38 -5 44 6 18 5 140 -1 140 -4 0 -5 6 -3 13 12 33 13 67 2 67 -8
0 -8 3 -2 8 6 4 10 16 10 27 0 11 -4 23 -10 27 -7 5 -7 8 0 8 6 0 10 19 10 42
0 24 -4 46 -10 50 -7 5 -7 8 0 8 6 0 10 18 10 40 0 22 -4 40 -8 40 -5 0 -5 6
0 12 8 15 9 99 0 122 -4 9 -3 16 1 16 4 0 7 20 7 45 0 25 -4 45 -8 45 -5 0 -5
6 0 13 10 16 11 28 1 54 -4 12 -3 25 1 28 5 3 5 20 1 39 -4 19 -5 37 -3 40 9
8 9 96 1 96 -4 0 -4 10 1 23 5 14 5 30 0 40 -6 9 -6 17 -2 17 4 0 8 30 9 68 1
77 18 237 24 237 2 0 4 11 5 25 2 29 15 81 24 95 3 6 7 16 8 23 2 6 4 18 6 25
1 6 10 27 20 46 9 19 17 40 17 47 0 7 7 19 15 27 8 8 16 21 17 28 2 7 10 20
18 29 8 10 31 37 50 60 60 73 208 172 277 185 10 2 19 4 21 5 1 2 5 3 10 4 4
2 25 8 47 14 46 13 157 30 230 36 28 2 50 5 50 6 0 1 8 3 17 5 23 4 62 37 67
55 2 8 4 74 4 146 1 205 -9 216 -189 213 -62 -1 -114 -3 -116 -4z"/>
<path d="M16449 12965 c-59 -19 -70 -57 -66 -215 4 -187 7 -189 177 -205 141
-13 270 -48 373 -102 133 -70 250 -212 301 -365 70 -208 74 -265 76 -1063 1
-670 3 -773 15 -870 36 -283 141 -474 333 -602 53 -34 199 -103 221 -103 6 0
11 -4 11 -10 0 -5 -7 -10 -14 -10 -8 0 -48 -15 -88 -33 -271 -124 -401 -303
-457 -633 -18 -99 -19 -173 -21 -839 0 -401 -2 -746 -5 -765 -12 -115 -16
-144 -21 -178 -12 -82 -48 -192 -91 -281 -113 -230 -324 -351 -658 -377 -65
-5 -108 -20 -131 -45 -16 -18 -19 -41 -22 -154 -5 -227 18 -246 275 -223 263
23 435 78 610 194 283 189 455 511 502 945 7 58 11 391 12 835 0 406 5 771 10
809 31 228 132 397 287 478 85 44 127 56 262 72 69 9 108 29 121 63 6 15 11
81 11 148 1 166 -13 184 -152 200 -316 35 -485 216 -529 564 -5 41 -10 397
-10 790 -1 764 -2 784 -31 961 -73 445 -303 768 -654 916 -64 27 -196 67 -256
77 -19 3 -45 8 -58 11 -23 4 -161 15 -253 19 -25 1 -61 -3 -80 -9z"/>
<path d="M6525 11664 c-263 -44 -468 -221 -548 -469 -61 -190 -35 -425 66
-594 34 -57 131 -162 182 -198 62 -42 188 -98 245 -108 98 -18 211 -24 275
-13 28 5 65 11 83 14 17 2 62 15 98 29 204 77 359 244 415 447 18 66 21 86 24
194 3 124 -25 250 -82 356 -43 81 -142 189 -217 236 -52 34 -176 88 -216 95
-14 3 -43 8 -65 13 -63 12 -184 11 -260 -2z m295 -273 c117 -45 203 -138 245
-268 37 -114 25 -267 -29 -371 -47 -91 -142 -168 -245 -202 -60 -19 -86 -22
-164 -18 -78 4 -104 10 -161 38 -178 84 -267 278 -233 505 12 75 62 171 121
229 117 115 303 150 466 87z"/>
<path d="M13687 11669 c-15 -4 -45 -10 -66 -13 -22 -3 -73 -18 -114 -34 -262
-102 -428 -342 -436 -633 -6 -199 64 -376 204 -514 213 -211 542 -258 845
-121 73 34 176 109 183 135 6 23 -88 167 -116 176 -11 4 -35 -6 -65 -28 -52
-37 -128 -75 -182 -90 -56 -15 -207 -20 -256 -8 -241 61 -377 297 -318 552 30
129 113 234 226 288 72 33 115 42 208 42 114 -1 186 -26 342 -120 l36 -22 22
23 c27 28 94 127 103 150 3 9 0 22 -6 30 -46 56 -218 146 -331 173 -72 18
-234 26 -279 14z"/>
<path d="M14987 11664 c-168 -31 -317 -115 -417 -233 -37 -45 -119 -191 -129
-231 -28 -113 -32 -140 -31 -231 0 -250 111 -456 316 -587 42 -26 212 -97 222
-92 1 1 21 -2 45 -5 65 -10 157 -11 212 -4 98 14 121 20 200 51 264 104 426
344 427 633 0 55 -5 120 -11 145 -7 25 -13 54 -15 65 -23 134 -135 289 -276
383 -148 98 -360 139 -543 106z m295 -270 c142 -56 234 -172 264 -334 8 -45 4
-162 -7 -204 -33 -128 -119 -232 -235 -287 -117 -56 -283 -52 -393 8 -247 135
-297 508 -96 719 112 118 309 159 467 98z"/>
<path d="M7621 11656 c-16 -19 -18 -1333 -3 -1348 6 -6 61 -10 124 -9 88 1
116 5 124 16 8 11 11 125 10 385 0 204 1 370 4 369 3 0 48 -52 100 -115 52
-64 102 -123 110 -132 8 -9 35 -42 60 -72 69 -84 85 -98 112 -109 32 -12 50 4
168 144 46 55 87 102 90 105 3 3 23 27 45 55 22 27 56 67 75 87 l35 38 -1
-370 c0 -258 3 -376 11 -386 9 -12 34 -15 125 -15 65 1 118 5 124 11 8 8 11
223 11 676 0 713 2 683 -48 684 -22 0 -50 -27 -153 -146 -101 -116 -184 -211
-207 -238 -11 -12 -40 -45 -65 -75 -26 -30 -54 -61 -62 -70 -9 -9 -42 -46 -74
-83 l-57 -67 -37 42 c-20 23 -41 47 -47 53 -11 12 -117 132 -185 209 -25 29
-74 85 -110 125 -36 41 -81 92 -100 115 -118 136 -149 157 -179 121z"/>
<path d="M10921 11652 c-6 -11 -9 -277 -9 -674 -1 -541 2 -659 13 -668 15 -12
232 -17 243 -5 4 4 9 177 12 386 l5 379 175 -207 c96 -114 186 -213 199 -220
35 -17 48 -7 147 110 47 56 98 116 113 132 14 17 48 57 76 90 55 67 72 85 78
85 2 0 3 -161 3 -357 -1 -202 3 -368 8 -380 9 -22 14 -23 126 -23 77 0 120 4
128 12 16 16 17 1309 2 1339 -18 33 -53 23 -107 -33 -28 -29 -102 -111 -163
-183 -62 -71 -138 -159 -169 -194 -31 -35 -63 -72 -71 -81 -24 -28 -107 -123
-128 -148 l-19 -22 -59 67 c-32 38 -61 70 -64 73 -3 3 -54 61 -114 130 -60 69
-116 132 -125 141 -9 9 -38 42 -66 75 -141 166 -171 194 -202 194 -12 0 -27
-8 -32 -18z"/>
<path d="M3073 11652 c-13 -2 -24 -6 -25 -10 -1 -4 -2 -293 -3 -642 -1 -350
-6 -654 -10 -675 -5 -22 -9 -46 -11 -54 -4 -21 -36 -62 -67 -85 -22 -16 -43
-20 -102 -21 -41 0 -78 -4 -84 -10 -17 -17 -35 -193 -22 -214 21 -32 220 -37
318 -7 125 39 208 147 238 311 10 57 7 1387 -3 1397 -10 10 -180 17 -229 10z"/>
<path d="M3639 11648 c-10 -4 -20 -11 -20 -15 -1 -4 -3 -300 -4 -656 -1 -456
2 -653 10 -663 9 -13 69 -15 425 -15 383 0 415 1 427 17 17 24 18 194 0 218
-11 15 -40 17 -302 19 l-289 2 0 136 c1 75 3 142 6 150 5 12 48 14 253 14 196
-1 251 2 261 13 16 16 20 198 5 221 -8 12 -53 15 -261 16 -176 0 -253 4 -258
12 -5 8 -8 229 -3 276 1 4 128 7 284 7 155 0 288 4 296 9 20 13 25 202 6 227
-11 16 -46 17 -414 18 -221 1 -411 -2 -422 -6z"/>
<path d="M4761 11648 c-10 -3 -20 -15 -23 -25 -9 -40 -1 -1304 8 -1313 6 -6
61 -11 124 -11 98 -1 115 1 126 16 10 14 13 106 13 419 0 221 1 463 1 540 l0
138 153 -4 c140 -4 156 -6 209 -32 87 -41 120 -101 113 -205 -7 -118 -79 -178
-260 -218 -49 -10 -49 -20 7 -111 23 -37 49 -80 58 -97 10 -16 56 -93 103
-170 47 -77 103 -168 123 -202 21 -35 45 -65 55 -68 10 -4 73 -6 139 -7 154
-1 162 5 117 79 -44 72 -134 216 -223 356 -42 66 -74 120 -72 122 2 1 26 15
53 31 55 31 135 108 135 129 0 7 4 15 8 17 4 2 15 26 24 53 24 74 19 232 -10
306 -53 134 -176 218 -368 250 -74 12 -583 18 -613 7z"/>
<path d="M9281 11648 c-10 -3 -20 -15 -23 -25 -2 -10 -4 -307 -3 -660 0 -473
3 -645 12 -654 17 -17 828 -15 849 2 20 16 20 211 0 228 -10 9 -96 12 -295 12
-187 0 -283 4 -287 11 -12 19 -8 279 4 287 6 3 118 6 249 5 131 0 246 3 256 8
14 7 17 23 17 111 0 56 -4 108 -9 116 -8 12 -53 15 -260 16 -137 0 -252 3
-256 6 -6 6 -9 136 -6 242 l1 47 283 0 c158 0 289 4 297 10 21 13 23 215 3
232 -16 13 -798 19 -832 6z"/>
<path d="M12593 11652 c-12 -2 -25 -12 -28 -23 -9 -27 -9 -1281 0 -1308 6 -20
13 -21 124 -21 78 0 121 4 129 12 14 14 17 1304 3 1326 -6 10 -37 14 -107 16
-55 0 -109 0 -121 -2z"/>
<path d="M5051 9676 c-17 -18 -183 -350 -471 -941 -43 -88 -103 -212 -134
-275 -31 -63 -56 -120 -56 -127 0 -16 50 -24 123 -21 31 2 57 1 57 -2 0 -12
76 3 94 19 10 9 35 52 56 96 80 170 114 243 153 325 22 47 75 162 119 255 44
94 83 173 86 177 4 3 32 -46 62 -110 30 -64 88 -187 128 -272 103 -217 110
-232 121 -260 6 -14 15 -32 20 -40 5 -8 26 -50 47 -93 43 -91 51 -96 156 -97
180 -3 188 1 155 70 -19 41 -338 690 -546 1112 -101 204 -126 231 -170 184z"/>
<path d="M7720 9675 c-195 -33 -362 -138 -464 -295 -43 -65 -80 -145 -90 -191
-3 -13 -10 -42 -15 -64 -15 -59 -6 -279 14 -345 34 -113 86 -200 170 -285 44
-45 96 -89 115 -99 105 -55 138 -68 213 -86 92 -22 253 -26 327 -9 25 6 54 12
65 14 30 4 124 43 175 72 103 59 219 184 263 283 33 74 48 116 53 150 3 19 9
51 13 70 15 68 -3 248 -33 335 -77 228 -273 399 -511 446 -77 16 -212 17 -295
4z m265 -260 c129 -43 228 -138 269 -257 107 -317 -91 -617 -409 -618 -192 0
-338 109 -404 303 -24 70 -22 229 4 302 55 157 184 262 350 288 46 7 143 -3
190 -18z"/>
<path d="M10618 9685 c-2 -2 -24 -6 -49 -9 -155 -21 -325 -116 -426 -241 -43
-52 -120 -185 -108 -185 4 0 3 -6 -3 -13 -6 -7 -16 -35 -22 -62 -7 -28 -14
-59 -16 -70 -7 -27 -6 -234 0 -244 3 -4 8 -23 11 -42 7 -42 26 -101 37 -114 4
-5 8 -15 8 -23 0 -18 80 -139 122 -182 52 -55 108 -96 184 -134 68 -34 208
-76 249 -75 11 0 52 0 90 0 68 -1 90 0 165 14 146 26 306 122 400 240 74 93
119 196 145 330 6 36 7 167 0 213 -18 127 -77 266 -151 352 -134 157 -312 239
-531 245 -56 1 -103 1 -105 0z m210 -270 c103 -30 205 -113 253 -207 29 -57
50 -164 48 -242 -3 -77 -16 -131 -49 -195 -19 -39 -28 -51 -77 -107 -62 -70
-184 -120 -301 -123 -222 -5 -400 149 -427 369 -13 103 -6 169 26 256 64 171
228 276 418 267 29 -1 78 -10 109 -18z"/>
<path d="M12790 9675 c-252 -45 -437 -190 -530 -415 -16 -38 -31 -86 -34 -106
-4 -20 -9 -40 -12 -45 -9 -15 -5 -197 6 -261 17 -96 69 -226 108 -266 6 -7 12
-16 12 -20 0 -4 20 -28 44 -53 55 -58 156 -131 221 -158 60 -25 192 -61 220
-60 11 1 56 0 100 0 44 -1 91 1 105 4 14 3 41 8 60 10 19 3 44 9 55 14 11 5
49 21 85 35 138 55 283 200 343 341 48 114 73 295 54 390 -4 17 -9 45 -12 62
-3 18 -16 62 -29 98 -78 215 -247 361 -494 425 -62 16 -226 19 -302 5z m245
-255 c264 -60 396 -386 265 -650 -49 -98 -131 -168 -239 -206 -54 -19 -83 -23
-161 -21 -86 3 -102 6 -171 40 -157 75 -242 225 -238 415 6 299 252 490 544
422z"/>
<path d="M3994 9652 c-12 -11 -14 -123 -15 -660 0 -356 -2 -654 -4 -663 -12
-65 -52 -124 -93 -141 -15 -5 -59 -10 -99 -10 -80 1 -83 -2 -89 -73 -2 -22 -6
-63 -9 -91 -9 -74 8 -86 127 -88 51 -1 114 2 140 6 158 29 260 139 289 313 17
100 18 1390 1 1407 -18 18 -230 18 -248 0z"/>
<path d="M5959 9662 c-8 -3 -17 -10 -21 -16 -4 -5 -7 -301 -6 -657 0 -478 3
-652 12 -664 6 -9 20 -16 31 -16 11 0 61 0 111 0 71 0 94 4 104 16 10 13 13
125 14 553 l1 537 155 0 c143 0 159 -2 203 -24 81 -39 113 -86 121 -176 4 -47
-24 -128 -55 -162 -28 -29 -112 -69 -163 -77 -75 -12 -88 -18 -83 -36 7 -28
348 -591 368 -608 21 -19 35 -21 114 -22 132 -1 180 4 183 20 1 9 -69 130
-158 269 -88 139 -160 257 -160 261 0 4 27 24 60 44 60 37 114 95 144 153 29
57 41 172 27 253 -36 202 -160 306 -411 346 -50 8 -569 13 -591 6z"/>
<path d="M8828 9662 c-10 -2 -19 -11 -20 -20 -6 -68 -3 -1300 3 -1313 8 -16
59 -33 59 -20 0 3 39 5 87 3 49 -1 94 1 102 7 10 7 14 49 15 194 0 102 4 188
8 192 4 4 78 9 165 10 169 4 269 23 355 66 177 89 262 271 233 499 -9 71 -42
170 -57 170 -5 0 -8 6 -8 13 0 19 -58 76 -114 112 -113 72 -210 88 -541 89
-148 1 -278 0 -287 -2z m575 -266 c110 -33 158 -100 154 -212 -7 -155 -100
-215 -344 -219 -81 -2 -126 1 -131 9 -14 17 -9 425 5 434 20 13 265 4 316 -12z"/>
<path d="M11738 9662 c-9 -2 -19 -15 -22 -30 -3 -15 -5 -309 -5 -653 1 -542
-1 -634 -15 -681 -26 -89 -72 -120 -181 -119 -80 0 -84 -3 -90 -69 -1 -14 -6
-53 -10 -87 -7 -59 -6 -62 20 -79 21 -14 49 -18 133 -18 183 1 296 56 358 175
25 49 50 147 54 209 1 30 3 342 3 693 0 473 -2 640 -11 649 -11 11 -193 19
-234 10z"/>
<path d="M13900 9662 c-8 -3 -18 -10 -22 -16 -4 -6 -8 -304 -8 -662 0 -701 -2
-675 51 -673 13 0 62 0 108 -1 61 0 89 3 99 14 12 11 15 51 15 190 0 96 3 180
7 186 5 8 54 13 146 15 166 4 207 9 298 37 136 42 235 132 285 257 19 48 24
83 27 165 3 116 -6 166 -41 243 -34 76 -97 138 -180 178 -116 57 -184 67 -495
69 -152 1 -282 0 -290 -2z m518 -256 c114 -13 184 -66 202 -153 31 -145 -37
-247 -185 -278 -57 -12 -274 -13 -284 -1 -13 17 -9 425 6 434 14 9 178 7 261
-2z"/>
<path d="M11253 7425 c-29 -7 -55 -10 -58 -7 -3 3 -5 0 -5 -6 0 -7 -8 -12 -18
-12 -21 0 -96 -53 -129 -90 -30 -34 -70 -109 -79 -145 -21 -95 -8 -214 33
-288 36 -65 133 -151 186 -163 4 -1 8 -2 10 -4 10 -8 57 -13 142 -13 93 -1
105 1 166 31 76 36 140 100 172 170 28 62 28 65 32 152 3 82 -14 153 -48 210
-25 41 -107 120 -124 120 -7 0 -13 5 -13 10 0 6 -11 10 -24 10 -14 0 -27 4
-31 9 -5 10 -64 21 -127 25 -18 2 -57 -3 -85 -9z m168 -144 c53 -24 68 -36 94
-76 32 -48 44 -94 41 -154 -6 -124 -84 -211 -202 -226 -41 -6 -134 13 -134 27
0 4 -6 8 -13 8 -12 0 -81 73 -83 88 0 4 -5 16 -10 27 -12 29 -10 161 4 178 7
8 10 16 7 19 -11 10 71 91 109 108 59 24 133 25 187 1z"/>
<path d="M5074 7406 c-3 -7 4 -33 14 -57 11 -24 63 -154 116 -289 53 -135 104
-263 114 -285 9 -22 16 -43 14 -47 -1 -5 3 -8 9 -8 5 0 8 -4 4 -9 -3 -5 4 -13
16 -16 25 -8 32 0 65 82 12 28 19 54 16 57 -3 3 0 6 6 6 7 0 12 5 12 12 0 14
90 240 100 251 7 8 26 -30 32 -63 2 -8 5 -17 8 -20 3 -3 33 -72 65 -154 69
-172 77 -185 101 -171 19 12 293 693 286 713 -3 8 -27 12 -72 12 l-67 0 -19
-42 c-10 -23 -19 -45 -20 -48 0 -3 -5 -16 -11 -30 -6 -14 -28 -72 -49 -130
-21 -58 -42 -107 -46 -108 -5 -2 -6 -7 -3 -11 2 -5 -2 -17 -10 -27 -13 -19
-14 -19 -20 1 -4 11 -39 101 -79 199 -75 190 -92 212 -120 158 -18 -36 -87
-210 -88 -222 0 -3 -5 -14 -11 -25 -6 -11 -12 -22 -13 -25 0 -3 -4 -14 -9 -25
-4 -11 -14 -35 -22 -54 -14 -36 -20 -37 -26 -5 -2 10 -9 30 -17 44 -7 14 -12
25 -11 25 1 0 -3 14 -9 30 -6 17 -27 73 -46 125 -19 52 -39 103 -44 112 -6 10
-10 24 -10 32 0 20 -22 26 -91 26 -42 0 -61 -4 -65 -14z"/>
<path d="M6148 7418 c-3 -7 -5 -684 -1 -698 4 -15 29 -17 224 -17 150 0 222 3
227 11 11 18 10 106 -2 114 -6 4 -72 8 -146 8 -74 1 -142 2 -150 3 -12 1 -15
15 -13 73 1 40 2 76 2 79 1 3 56 6 124 6 67 1 130 1 140 2 14 1 17 11 17 61 0
56 -2 61 -27 71 -17 6 -28 6 -32 0 -4 -6 -12 -6 -20 -1 -8 4 -24 4 -37 0 -12
-5 -25 -6 -28 -3 -3 4 -35 5 -71 4 -57 -2 -65 0 -66 16 -9 151 -19 142 161
140 114 -2 150 1 151 11 4 39 5 99 1 110 -3 9 -58 12 -228 12 -123 0 -225 -1
-226 -2z"/>
<path d="M6747 7414 c-9 -10 -9 -686 1 -700 7 -13 319 -12 377 0 101 21 164
90 170 185 5 76 -38 152 -93 166 l-26 6 31 20 c52 33 77 114 59 194 -2 11 -5
23 -5 26 -1 3 -14 20 -31 38 -48 55 -108 68 -305 70 -94 1 -174 -1 -178 -5z
m328 -134 c36 -12 54 -42 48 -80 -6 -41 -37 -64 -90 -67 -27 -1 -50 -3 -53 -3
-16 -5 -82 -1 -87 4 -4 3 -7 39 -8 79 -1 70 0 72 25 77 37 8 128 2 165 -10z
m29 -297 c60 -28 57 -111 -5 -137 -42 -17 -209 -20 -210 -3 -4 41 -5 134 -1
145 7 19 173 16 216 -5z"/>
<path d="M7705 7409 c-9 -14 -10 -683 -1 -697 4 -6 71 -9 173 -7 222 3 301 28
385 118 29 33 66 100 74 137 19 90 10 222 -19 258 -5 6 -7 12 -3 12 12 0 -28
55 -69 93 -80 75 -155 95 -369 97 -115 0 -166 -3 -171 -11z m384 -154 c28 -16
59 -40 68 -54 82 -121 43 -280 -81 -337 -65 -30 -224 -39 -230 -14 -2 8 -4
110 -4 227 l1 212 97 -3 c85 -3 105 -8 149 -31z"/>
<path d="M8479 7413 c-1 -5 -2 -162 -3 -351 -1 -224 2 -346 9 -350 17 -11 429
-10 443 1 6 5 12 31 12 58 0 27 -5 51 -12 56 -7 4 -74 9 -148 10 -74 1 -141 2
-147 2 -9 1 -13 24 -13 79 l0 78 131 0 c72 -1 135 2 140 5 9 5 15 116 7 124
-4 5 -117 9 -133 5 -5 -1 -14 -2 -20 0 -5 1 -36 2 -67 2 l-58 0 0 78 0 78 151
-1 c166 0 167 0 167 62 1 75 16 71 -234 71 -123 0 -225 -3 -225 -7z"/>
<path d="M9000 7408 c0 -12 298 -624 334 -688 8 -14 24 -26 35 -28 17 -3 37
30 134 230 63 128 115 237 115 242 0 5 4 12 9 15 5 3 26 44 48 91 21 47 43 88
48 91 5 3 8 9 8 13 -1 3 -1 7 0 9 11 35 7 37 -60 37 -53 0 -72 -4 -84 -18 -10
-10 -17 -21 -17 -24 0 -3 -25 -57 -55 -121 -31 -64 -56 -119 -55 -122 0 -3
-11 -25 -25 -49 -13 -24 -21 -46 -18 -50 4 -3 2 -6 -3 -6 -6 0 -16 -16 -23
-35 -7 -19 -17 -35 -22 -35 -5 0 -8 3 -7 8 2 11 -54 126 -64 130 -4 2 -8 10
-8 17 0 8 -32 80 -71 160 l-71 145 -74 0 c-53 0 -74 -4 -74 -12z"/>
<path d="M9819 7403 c-6 -83 -4 -672 2 -684 7 -14 36 -16 228 -16 243 1 231
-3 233 65 2 68 3 68 -155 67 -78 0 -147 1 -153 3 -7 2 -12 32 -12 80 l-1 77
134 1 c74 0 137 3 141 6 9 10 11 94 2 119 -7 18 -11 20 -17 10 -6 -9 -11 -10
-15 -2 -4 7 -15 7 -30 1 -13 -5 -26 -6 -29 -3 -8 8 -141 8 -154 0 -14 -9 -32
13 -32 38 -1 48 -1 57 1 88 l3 32 135 2 c74 1 145 2 157 2 20 1 22 5 20 64
l-2 62 -227 3 c-212 2 -228 1 -229 -15z"/>
<path d="M10417 7403 c-8 -29 -3 -677 5 -689 10 -16 435 -15 446 0 5 6 8 20 8
31 -1 11 2 22 5 25 3 3 2 19 -2 35 l-8 30 -143 0 c-157 0 -184 5 -168 34 5 10
6 21 3 25 -10 10 -10 106 0 106 5 0 5 6 0 12 -10 18 -10 160 0 176 5 6 6 12 1
12 -11 0 -12 155 -2 166 4 4 4 12 -1 18 -5 6 -9 16 -8 21 1 6 -27 11 -65 13
-57 2 -67 0 -71 -15z"/>
<path d="M11839 7418 c-6 -16 -3 -687 3 -700 6 -13 19 -16 65 -13 32 1 61 3
65 4 4 1 9 47 10 103 l3 103 80 2 c224 6 332 99 320 276 -7 113 -66 185 -173
213 -40 10 -370 21 -373 12z m337 -146 c41 -22 58 -52 59 -102 0 -85 -49 -116
-187 -120 l-68 -1 0 120 0 121 88 -4 c48 -2 97 -8 108 -14z"/>
<path d="M12509 7413 c-1 -5 -2 -162 -3 -351 -1 -221 2 -346 9 -351 13 -11
426 -8 443 2 7 5 12 30 12 63 0 36 -4 55 -12 56 -7 0 -74 2 -148 4 -74 1 -141
2 -147 3 -9 1 -13 24 -13 79 l0 78 136 0 c75 -1 138 3 141 8 7 10 7 115 0 122
-7 8 -241 9 -254 1 -18 -12 -23 5 -23 84 l0 78 155 -2 c174 -2 165 -7 162 83
l-2 45 -227 3 c-126 1 -229 -1 -229 -5z"/>
<path d="M13107 7413 c-6 -11 -7 -674 -1 -694 3 -13 18 -16 69 -16 65 0 65 0
69 31 3 17 4 147 3 289 -1 155 2 261 7 265 6 3 41 5 80 4 120 -3 171 -44 162
-132 -3 -35 -11 -50 -37 -72 -18 -15 -36 -25 -40 -22 -4 2 -10 0 -14 -5 -3 -5
-13 -8 -23 -6 -10 1 -26 -3 -37 -11 -10 -8 -14 -14 -8 -14 6 0 13 -8 16 -17 4
-10 33 -61 66 -113 33 -52 69 -111 80 -130 38 -66 35 -65 116 -67 59 -1 75 2
75 13 0 13 -81 150 -141 239 l-27 40 31 20 c68 42 97 95 97 178 0 119 -60 187
-190 216 -52 12 -347 15 -353 4z"/>
</g>
</svg>
